<svg width="80" height="25" viewBox="0 0 80 25" fill="none" xmlns="http://www.w3.org/2000/svg">
<path fill-rule="evenodd" clip-rule="evenodd" d="M25.6889 11.3552C25.7423 11.8062 25.772 12.2662 25.772 12.7337C25.772 19.0743 20.6319 24.2159 14.2898 24.2159C9.67201 24.2159 5.69227 21.49 3.86859 17.5592L5.70562 16.6348C7.18949 19.8948 10.4748 22.1607 14.2898 22.1607C19.4952 22.1607 23.7169 17.9406 23.7169 12.7337C23.7169 12.6372 23.7154 12.5408 23.7124 12.4443L25.6889 11.3552ZM14.2898 1.25146C19.1258 1.25146 23.2643 4.24147 24.9559 8.47495L22.9912 9.10115C21.5697 5.69863 18.2087 3.30663 14.2898 3.30663C9.0844 3.30663 4.86278 7.52676 4.86278 12.7337C4.86278 12.7975 4.86426 12.8628 4.86575 12.9266L2.94265 14.4995C2.85362 13.9237 2.80762 13.3346 2.80762 12.7337C2.8091 6.3916 7.94923 1.25146 14.2898 1.25146Z" fill="#010E35"/>
<path fill-rule="evenodd" clip-rule="evenodd" d="M1.49902 17.3248L12.729 8.13965L12.263 11.9591L18.8173 8.245L18.4849 11.8716L27.0825 9.13384L15.4222 15.556L16.2932 11.9013L9.55645 15.8498L10.0016 13.0468L1.49902 17.3248Z" fill="#010E35"/>
<path fill-rule="evenodd" clip-rule="evenodd" d="M71.4162 12.8627H75.4894C75.8515 12.8627 76.1067 12.784 76.2551 12.6282C76.4035 12.4724 76.4792 12.235 76.4792 11.9159V11.4693C76.4792 11.1503 76.405 10.9129 76.2551 10.757C76.1067 10.6012 75.8515 10.5226 75.4894 10.5226H71.5542C71.4622 10.5226 71.4162 10.5656 71.4162 10.6502V12.8627ZM75.8204 9.06543C76.635 9.06543 77.2211 9.24943 77.5758 9.61891C77.9304 9.98691 78.107 10.533 78.107 11.2571V11.864C78.107 12.4739 77.9824 12.9561 77.7345 13.3108C77.4867 13.6654 77.0816 13.8925 76.5222 13.9919L78.3414 16.2474C78.3771 16.283 78.3875 16.3364 78.3741 16.4061C78.3593 16.4774 78.3029 16.513 78.2035 16.513H76.8309C76.7389 16.513 76.6751 16.5026 76.6394 16.4818C76.6038 16.461 76.5682 16.4254 76.5326 16.375L74.8529 14.1625H71.4177V16.2785C71.4177 16.4343 71.3391 16.513 71.1833 16.513H70.0347C69.8715 16.513 69.7899 16.4343 69.7899 16.2785V9.38446C69.7899 9.17227 69.8967 9.06543 70.1089 9.06543H75.8204ZM68.3209 9.06543C68.4841 9.06543 68.5657 9.14407 68.5657 9.29988V10.3089C68.5657 10.4647 68.4841 10.5434 68.3209 10.5434H63.6734C63.3974 10.5434 63.1689 10.5671 62.9878 10.6131C62.8068 10.6591 62.6614 10.7378 62.5516 10.8476C62.4418 10.9574 62.3661 11.1058 62.323 11.2942C62.28 11.4827 62.2592 11.7141 62.2592 11.9901V12.097H68.2689C68.4247 12.097 68.5034 12.1756 68.5034 12.3314V13.1713C68.5034 13.3271 68.4247 13.4058 68.2689 13.4058H62.2592V13.5868C62.2592 13.8628 62.28 14.0958 62.323 14.2827C62.3661 14.4712 62.4418 14.6196 62.5516 14.7294C62.6614 14.8392 62.8068 14.9178 62.9878 14.9638C63.1689 15.0098 63.3974 15.0336 63.6734 15.0336H68.3209C68.4841 15.0336 68.5657 15.1122 68.5657 15.268V16.2785C68.5657 16.4343 68.4841 16.513 68.3209 16.513H63.6407C63.1021 16.513 62.645 16.464 62.2681 16.3646C61.8927 16.2652 61.5856 16.1034 61.3481 15.8809C61.1107 15.6568 60.9371 15.3674 60.8273 15.0083C60.7175 14.6507 60.6626 14.216 60.6626 13.7055V11.8729C60.6626 11.3625 60.7175 10.9307 60.8273 10.576C60.9371 10.2214 61.1107 9.93201 61.3481 9.70943C61.5856 9.48536 61.8927 9.32362 62.2681 9.21975C62.6436 9.11736 63.1006 9.06543 63.6407 9.06543H68.3209ZM59.7708 9.06543C59.934 9.06543 60.0156 9.14407 60.0156 9.29988V10.3416C60.0156 10.5048 59.934 10.5864 59.7708 10.5864H56.4306V16.277C56.4306 16.4329 56.3519 16.5115 56.1961 16.5115H55.0372C54.8814 16.5115 54.8028 16.4329 54.8028 16.277V10.5864H51.4626C51.2994 10.5864 51.2178 10.5048 51.2178 10.3416V9.29988C51.2178 9.14407 51.2994 9.06543 51.4626 9.06543H59.7708ZM50.2087 9.06543C50.3719 9.06543 50.4536 9.14407 50.4536 9.29988V10.3089C50.4536 10.4647 50.3719 10.5434 50.2087 10.5434H45.5612C45.2852 10.5434 45.0552 10.5671 44.8757 10.6131C44.6946 10.6591 44.5492 10.7378 44.4394 10.8476C44.3296 10.9574 44.2539 11.1058 44.2109 11.2942C44.1679 11.4827 44.1471 11.7141 44.1471 11.9901V12.097H50.1568C50.3126 12.097 50.3912 12.1756 50.3912 12.3314V13.1713C50.3912 13.3271 50.3126 13.4058 50.1568 13.4058H44.1471V13.5868C44.1471 13.8628 44.1679 14.0958 44.2109 14.2827C44.2539 14.4712 44.3296 14.6196 44.4394 14.7294C44.5492 14.8392 44.6946 14.9178 44.8757 14.9638C45.0567 15.0098 45.2852 15.0336 45.5612 15.0336H50.2087C50.3719 15.0336 50.4536 15.1122 50.4536 15.268V16.2785C50.4536 16.4343 50.3719 16.513 50.2087 16.513H45.5286C44.9899 16.513 44.5329 16.464 44.156 16.3646C43.7806 16.2652 43.4734 16.1034 43.236 15.8809C42.9986 15.6568 42.825 15.3674 42.7152 15.0083C42.6054 14.6507 42.5505 14.216 42.5505 13.7055V11.8729C42.5505 11.3625 42.6054 10.9307 42.7152 10.576C42.825 10.2214 42.9986 9.93201 43.236 9.70943C43.4734 9.48536 43.7806 9.32362 44.156 9.21975C44.5314 9.11736 44.9885 9.06543 45.5286 9.06543H50.2087ZM32.0432 9.06543C32.199 9.06543 32.334 9.07582 32.4468 9.09808C32.5595 9.11885 32.659 9.1604 32.745 9.21975C32.8296 9.28059 32.9068 9.3622 32.9735 9.46459C33.0403 9.56698 33.1101 9.70349 33.1813 9.87414L35.3937 14.9787C35.4219 15.0425 35.4724 15.0751 35.5421 15.0751H35.6697C35.741 15.0751 35.7899 15.044 35.8181 14.9787L38.0306 9.87414C38.1018 9.70349 38.1701 9.56698 38.2383 9.46459C38.3051 9.3622 38.3823 9.28059 38.4668 9.21975C38.5514 9.15891 38.6494 9.11885 38.7592 9.09808C38.869 9.0773 39.0025 9.06543 39.1583 9.06543H40.2965C40.6645 9.06543 40.9137 9.14853 41.0414 9.31472C41.169 9.48091 41.2328 9.7673 41.2328 10.1709V16.2756C41.2328 16.4314 41.1512 16.51 40.9879 16.51H39.9032C39.7474 16.51 39.6688 16.4314 39.6688 16.2756V10.7244C39.6688 10.6532 39.6406 10.6176 39.5842 10.6176H39.4892C39.418 10.6176 39.372 10.6458 39.3512 10.7021L37.2011 15.4683C37.1165 15.6598 37.029 15.8215 36.9399 15.9521C36.8509 16.0827 36.7559 16.191 36.6535 16.277C36.5512 16.3616 36.4339 16.4225 36.3019 16.4581C36.1713 16.4937 36.017 16.5115 35.8389 16.5115H35.3284C35.1519 16.5115 34.9975 16.4937 34.8655 16.4581C34.7349 16.4225 34.6177 16.3616 34.5138 16.277C34.4114 16.1925 34.315 16.0841 34.2274 15.9521C34.1384 15.8215 34.0523 15.6598 33.9663 15.4683L31.8176 10.7036C31.7968 10.6472 31.7508 10.619 31.6796 10.619H31.5832C31.5268 10.619 31.4986 10.6547 31.4986 10.7259V16.2785C31.4986 16.4343 31.4199 16.513 31.2641 16.513H30.1794C30.0162 16.513 29.9346 16.4343 29.9346 16.2785V10.1709C29.9346 9.7673 29.9984 9.48091 30.126 9.31472C30.2536 9.14853 30.5059 9.06543 30.8813 9.06543H32.0432Z" fill="#010E35"/>
</svg>
